<?xml version="1.0" encoding="UTF-8" standalone="no"?>
<!-- Created with Inkscape (http://www.inkscape.org/) -->

<svg
   xmlns:dc="http://purl.org/dc/elements/1.1/"
   xmlns:cc="http://creativecommons.org/ns#"
   xmlns:rdf="http://www.w3.org/1999/02/22-rdf-syntax-ns#"
   xmlns:svg="http://www.w3.org/2000/svg"
   xmlns="http://www.w3.org/2000/svg"
   xmlns:sodipodi="http://sodipodi.sourceforge.net/DTD/sodipodi-0.dtd"
   xmlns:inkscape="http://www.inkscape.org/namespaces/inkscape"
   width="5.6444445mm"
   height="9.847393mm"
   viewBox="0 0 20 34.892337"
   id="svg3455"
   version="1.1"
   inkscape:version="0.91 r13725"
   sodipodi:docname="Map Pin.svg">
  <defs
     id="defs3457" />
  <sodipodi:namedview
     id="base"
     pagecolor="#ffffff"
     bordercolor="#666666"
     borderopacity="1.0"
     inkscape:pageopacity="0.0"
     inkscape:pageshadow="2"
     inkscape:zoom="12.181359"
     inkscape:cx="8.4346812"
     inkscape:cy="14.715224"
     inkscape:document-units="px"
     inkscape:current-layer="layer1"
     showgrid="false"
     inkscape:window-width="1024"
     inkscape:window-height="705"
     inkscape:window-x="-4"
     inkscape:window-y="-4"
     inkscape:window-maximized="1"
     fit-margin-top="0"
     fit-margin-left="0"
     fit-margin-right="0"
     fit-margin-bottom="0" />
  <metadata
     id="metadata3460">
    <rdf:RDF>
      <cc:Work
         rdf:about="">
        <dc:format>image/svg+xml</dc:format>
        <dc:type
           rdf:resource="http://purl.org/dc/dcmitype/StillImage" />
        <dc:title></dc:title>
      </cc:Work>
    </rdf:RDF>
  </metadata>
  <g
     inkscape:label="Layer 1"
     inkscape:groupmode="layer"
     id="layer1"
     transform="translate(-814.59595,-274.38623)">
    <g
       id="g3477"
       transform="matrix(1.1855854,0,0,1.1855854,-151.17715,-57.3976)">
      <path
         sodipodi:nodetypes="sscccccsscs"
         inkscape:connector-curvature="0"
         id="path4337-3"
         d="m 817.11249,282.97118 c -1.25816,1.34277 -2.04623,3.29881 -2.01563,5.13867 0.0639,3.84476 1.79693,5.3002 4.56836,10.59179 0.99832,2.32851 2.04027,4.79237 3.03125,8.87305 0.13772,0.60193 0.27203,1.16104 0.33416,1.20948 0.0621,0.0485 0.19644,-0.51262 0.33416,-1.11455 0.99098,-4.08068 2.03293,-6.54258 3.03125,-8.87109 2.77143,-5.29159 4.50444,-6.74704 4.56836,-10.5918 0.0306,-1.83986 -0.75942,-3.79785 -2.01758,-5.14062 -1.43724,-1.53389 -3.60504,-2.66908 -5.91619,-2.71655 -2.31115,-0.0475 -4.4809,1.08773 -5.91814,2.62162 z"
         style="display:inline;opacity:1;fill:#ff4646;fill-opacity:1;stroke:#d73534;stroke-width:1;stroke-miterlimit:4;stroke-dasharray:none;stroke-opacity:1" />
      <circle
         r="8.0355"
         cy="288.25278"
         cx="823.03064"
         id="path3049"
         style="display:inline;opacity:1;fill:#ffffff;fill-opacity:1;stroke:#d73534;stroke-width:1;stroke-miterlimit:4;stroke-dasharray:none;stroke-opacity:1" />
      <path d="M 823.026 286.692 C 823.481 286.692 823.872 286.854 824.195 287.177 C 824.519 287.502 824.681 287.891 824.681 288.347 C 824.681 288.804 824.519 289.194 824.195 289.518 C 823.872 289.841 823.481 290.003 823.026 290.003 C 822.569 290.003 822.179 289.841 821.855 289.518 C 821.532 289.194 821.369 288.804 821.369 288.347 C 821.369 287.891 821.532 287.502 821.855 287.177 C 822.179 286.854 822.569 286.692 823.026 286.692 M 827.073 284.299 C 827.479 284.299 827.826 284.444 828.115 284.732 C 828.401 285.019 828.544 285.365 828.544 285.771 L 828.544 290.923 C 828.544 291.33 828.401 291.676 828.115 291.963 C 827.826 292.251 827.479 292.395 827.073 292.395 L 818.978 292.395 C 818.571 292.395 818.226 292.251 817.938 291.963 C 817.65 291.676 817.506 291.33 817.506 290.923 L 817.506 285.771 C 817.506 285.365 817.65 285.019 817.938 284.732 C 818.226 284.444 818.571 284.299 818.978 284.299 L 820.266 284.299 L 820.559 283.518 C 820.632 283.331 820.765 283.168 820.959 283.032 C 821.152 282.895 821.35 282.828 821.553 282.828 L 824.497 282.828 C 824.701 282.828 824.899 282.895 825.092 283.032 C 825.285 283.168 825.419 283.331 825.493 283.518 L 825.786 284.299 L 827.073 284.299 M 823.026 290.923 C 823.735 290.923 824.342 290.672 824.845 290.167 C 825.349 289.663 825.602 289.056 825.602 288.347 C 825.602 287.638 825.349 287.031 824.845 286.529 C 824.342 286.024 823.735 285.771 823.026 285.771 C 822.315 285.771 821.71 286.024 821.205 286.529 C 820.702 287.031 820.449 287.638 820.449 288.347 C 820.449 289.056 820.702 289.663 821.205 290.167 C 821.71 290.672 822.315 290.923 823.026 290.923" style=""/>
    </g>
  </g>
</svg>
